<svg width="116" height="116" viewBox="0 0 116 116" fill="none" xmlns="http://www.w3.org/2000/svg">
<circle cx="58" cy="58" r="58" fill="white"/>
<path d="M85.75 62.1317C83.8075 61.4533 81.7416 61.0833 79.5833 61.0833C74.6768 61.0833 69.9713 63.0324 66.5018 66.5019C63.0324 69.9713 61.0833 74.6768 61.0833 79.5833C61.0833 80.6317 61.1758 81.6492 61.33 82.6667H30.25C28.6145 82.6667 27.046 82.017 25.8895 80.8605C24.733 79.704 24.0833 78.1355 24.0833 76.5V39.5C24.0833 36.0775 26.8275 33.3333 30.25 33.3333H79.5833C81.2188 33.3333 82.7873 33.983 83.9438 35.1395C85.1003 36.296 85.75 37.8645 85.75 39.5V62.1317ZM93.4583 73.4167L78.0416 88.8333L67.25 78.0417L71.875 73.4167L78.0416 79.5833L88.8333 68.7917L93.4583 73.4167ZM30.25 39.5V45.6667L54.9166 61.0833L79.5833 45.6667V39.5L54.9166 54.9167L30.25 39.5Z" fill="#27B2EC"/>
</svg>
