<svg width="116" height="116" viewBox="0 0 116 116" fill="none" xmlns="http://www.w3.org/2000/svg">
<circle cx="58" cy="58" r="58" fill="white"/>
<path d="M58 27.1667C49.4993 27.1667 42.5833 34.0826 42.5833 42.5833V51.8333H39.5C37.8645 51.8333 36.296 52.483 35.1395 53.6395C33.983 54.796 33.3333 56.3645 33.3333 58V82.6667C33.3333 84.3022 33.983 85.8707 35.1395 87.0271C36.296 88.1836 37.8645 88.8333 39.5 88.8333H76.5C78.1355 88.8333 79.704 88.1836 80.8605 87.0271C82.017 85.8707 82.6667 84.3022 82.6667 82.6667V58C82.6667 56.3645 82.017 54.796 80.8605 53.6395C79.704 52.483 78.1355 51.8333 76.5 51.8333H73.4167V42.5833C73.4167 34.0826 66.5008 27.1667 58 27.1667ZM48.75 42.5833C48.75 37.4835 52.9002 33.3333 58 33.3333C63.0998 33.3333 67.25 37.4835 67.25 42.5833V51.8333H48.75V42.5833ZM61.0833 75.6459V82.6667H54.9167V75.6459C53.8387 75.0286 52.9731 74.0991 52.4341 72.9799C51.895 71.8608 51.7078 70.6045 51.8971 69.3768C52.0864 68.1491 52.6434 67.0076 53.4945 66.1028C54.3457 65.198 55.4511 64.5724 56.6649 64.3085C57.5665 64.1091 58.5014 64.1147 59.4006 64.3248C60.2998 64.5349 61.1403 64.9441 61.8603 65.5223C62.5802 66.1005 63.1612 66.833 63.5604 67.6656C63.9596 68.4983 64.1668 69.4099 64.1667 70.3333C64.1649 71.4117 63.879 72.4706 63.3377 73.4032C62.7963 74.3359 62.0188 75.1094 61.0833 75.6459Z" fill="#27B2EC"/>
</svg>
